<svg xmlns="http://www.w3.org/2000/svg" width="660" height="400" viewBox="0 0 660 400">
  <defs>
    <linearGradient id="bg" x1="0" y1="0" x2="1" y2="1">
      <stop offset="0" stop-color="#15222a"/>
      <stop offset="0.55" stop-color="#071017"/>
      <stop offset="1" stop-color="#141c22"/>
    </linearGradient>
    <radialGradient id="glow" cx="50%" cy="40%" r="55%">
      <stop offset="0" stop-color="#f2b53f" stop-opacity="0.24"/>
      <stop offset="0.48" stop-color="#2f8fb5" stop-opacity="0.10"/>
      <stop offset="1" stop-color="#071017" stop-opacity="0"/>
    </radialGradient>
    <filter id="soft" x="-20%" y="-20%" width="140%" height="140%">
      <feGaussianBlur stdDeviation="12"/>
    </filter>
  </defs>

  <rect width="660" height="400" rx="0" fill="url(#bg)"/>
  <rect width="660" height="400" fill="url(#glow)"/>

  <g opacity="0.16" filter="url(#soft)">
    <path d="M0 296 C 92 260, 146 328, 230 292 S 390 255, 474 296 S 602 335, 660 286" fill="none" stroke="#f0b33d" stroke-width="18"/>
    <path d="M0 322 C 84 288, 156 350, 240 318 S 386 282, 478 320 S 594 352, 660 316" fill="none" stroke="#4aa7c7" stroke-width="12"/>
  </g>

  <g opacity="0.28">
    <line x1="330" y1="122" x2="330" y2="242" stroke="#ffffff" stroke-width="1"/>
    <path d="M300 196 L330 226 L360 196" fill="none" stroke="#ffffff" stroke-width="3" stroke-linecap="round" stroke-linejoin="round"/>
  </g>

  <text x="330" y="322" text-anchor="middle" font-family="-apple-system, BlinkMacSystemFont, Helvetica, Arial, sans-serif" font-size="16" font-weight="600" fill="#dce5e8">Drag SelfStem to Applications</text>
</svg>
